<svg width="243" height="237" viewBox="0 0 243 237" fill="none" xmlns="http://www.w3.org/2000/svg">
<path d="M85.8586 60.8087C88.8047 68.9785 90.4632 77.5586 90.7751 86.2434C91.1949 95.0082 90.2068 103.788 87.8484 112.249C87.2931 114.37 86.6147 116.458 85.8165 118.502L83.2257 124.6C82.2224 126.567 81.0343 128.438 79.9443 130.333C79.435 131.303 78.8696 132.243 78.2509 133.148L76.1991 135.726C74.7884 137.443 73.5627 139.255 72.0089 140.809L67.3401 145.395C65.7622 146.904 64.0493 148.266 62.223 149.463C60.4058 150.595 58.7089 151.988 56.9293 153.181C63.4256 147.625 69.1572 141.236 73.9739 134.179C75.2277 132.489 76.3316 130.693 77.2731 128.812C78.2345 126.914 79.2107 125.174 80.1951 123.178L82.645 117.46C83.385 115.496 84.0177 113.493 84.5401 111.46C86.7826 103.308 87.9909 94.9096 88.1367 86.4625C88.247 82.2071 88.0937 77.9497 87.6777 73.7147C87.355 69.3768 86.7474 65.0655 85.8586 60.8087Z" fill="#FBBFBF"/>
<path d="M118.506 45.0177C122.811 57.0535 125.291 69.66 125.863 82.4151C126.595 95.2624 125.272 108.134 121.944 120.541C120.227 126.74 117.964 132.772 115.184 138.565C112.355 144.33 108.969 149.8 105.074 154.898C97.3066 165.026 87.7266 173.615 76.8193 180.227C81.7964 176.365 86.4982 172.159 90.8905 167.64C95.2934 163.234 99.2908 158.439 102.834 153.313C109.931 143.068 115.226 131.675 118.494 119.626C121.727 107.535 123.272 95.0439 123.084 82.5098C122.949 69.8925 121.403 57.3229 118.476 45.0364L118.506 45.0177Z" fill="#FBBFBF"/>
<path d="M153.496 28.1825C159.325 44.4819 162.683 61.5541 163.458 78.8276C164.449 96.226 162.657 113.657 158.151 130.459C155.825 138.854 152.762 147.022 148.996 154.868C145.165 162.675 140.58 170.083 135.305 176.986C124.786 190.703 111.812 202.334 97.0414 211.289C103.782 206.058 110.149 200.362 116.097 194.242C122.06 188.276 127.473 181.783 132.272 174.84C141.882 160.966 149.054 145.538 153.479 129.22C157.857 112.846 159.949 95.93 159.694 78.9558C159.511 61.869 157.419 44.8467 153.455 28.2079L153.496 28.1825Z" fill="#FBBFBF"/>
</svg>
