<svg width="196" height="173" viewBox="0 0 196 173" fill="none" xmlns="http://www.w3.org/2000/svg">
<path d="M162.249 102.835C154.601 99.5987 147.507 95.186 141.223 89.757C134.753 84.3563 129.199 77.9454 124.775 70.7724C123.669 68.9936 122.654 67.1591 121.736 65.2762L119.155 59.537C118.42 57.5665 117.889 55.5184 117.248 53.5237C116.982 52.4996 116.607 51.529 116.388 50.4929L115.912 47.412C115.643 45.3208 115.158 43.2606 115.07 41.197L114.829 34.9009C114.805 32.8241 114.957 30.7491 115.282 28.6978L116.127 22.5672C115.922 30.7908 116.808 39.0054 118.76 46.9965C119.152 48.973 119.698 50.916 120.391 52.8081C121.072 54.6683 121.672 56.5993 122.429 58.4646L124.984 63.9125C125.879 65.7034 126.869 67.4449 127.951 69.1293C132.2 75.99 137.296 82.2879 143.119 87.8743C146.038 90.7101 149.125 93.3687 152.362 95.8357C155.51 98.3706 158.812 100.708 162.249 102.835Z" fill="#FBBFBF"/>
<path d="M151.896 136C140.676 131.177 130.251 124.685 120.972 116.745C111.499 108.896 103.359 99.565 96.8678 89.1148C93.6787 83.8218 90.9571 78.2609 88.7336 72.4953C86.5605 66.7467 84.9445 60.8026 83.9078 54.7449C81.9107 42.6621 82.153 30.315 84.6227 18.3199C84.0862 24.3412 83.9538 30.3916 84.2265 36.4307C84.4518 42.4256 85.2083 48.3887 86.4869 54.2501C89.0243 65.9227 93.5374 77.0761 99.8313 87.2286C106.16 97.3937 113.872 106.63 122.744 114.671C127.165 118.75 131.828 122.559 136.705 126.079C141.549 129.711 146.623 133.025 151.896 136Z" fill="#FBBFBF"/>
<path d="M137.225 165.556C123.231 159.539 110.226 151.442 98.6514 141.538C86.8354 131.747 76.6819 120.108 68.5848 107.072C64.6069 100.47 61.2119 93.5333 58.4384 86.3415C55.7277 79.1707 53.712 71.7562 52.4189 64.2001C49.9277 49.1283 50.2299 33.7268 53.3106 18.7644C52.6413 26.2752 52.4762 33.8224 52.8163 41.3553C53.0975 48.8332 54.041 56.2715 55.636 63.5828C58.801 78.1429 64.4305 92.0553 72.2814 104.719C80.1762 117.399 89.7951 128.92 100.862 138.951C106.377 144.038 112.193 148.79 118.277 153.18C124.319 157.711 130.648 161.845 137.225 165.556Z" fill="#FBBFBF"/>
</svg>
