<svg width="309" height="356" viewBox="0 0 309 356" fill="none" xmlns="http://www.w3.org/2000/svg">
<path d="M82.954 227.866C83.7135 230.19 83.7667 232.688 83.107 235.043C82.4473 237.398 81.1043 239.504 79.2477 241.096C77.3911 242.687 75.1043 243.693 72.6763 243.985C70.2483 244.277 67.7881 243.843 65.6068 242.738C63.4255 241.632 61.621 239.905 60.4214 237.773C59.2217 235.642 58.6807 233.204 58.8668 230.765C59.0529 228.327 59.9578 225.998 61.4671 224.074C62.9763 222.15 65.0221 220.716 67.3459 219.955C68.8902 219.448 70.5191 219.251 72.1395 219.375C73.7599 219.499 75.34 219.941 76.7896 220.675C78.2391 221.41 79.5297 222.423 80.5874 223.657C81.6451 224.891 82.4493 226.321 82.954 227.866Z" fill="#FFDCDC"/>
<path d="M79.8798 224.503C79.4747 225.122 68.6087 217.902 57.1231 206.822C45.6375 195.741 36.6063 186.781 37.0114 186.257C37.4165 185.733 47.6153 193.787 59.0056 204.844C70.3958 215.901 80.4041 223.883 79.8798 224.503Z" fill="#FFDCDC"/>
<path d="M54.5041 166.148C55.2189 166.148 54.7424 173.106 49.5238 179.516C44.3053 185.926 37.6092 187.904 37.4901 187.213C37.371 186.522 42.7563 183.639 47.403 177.681C52.0497 171.724 53.6701 165.981 54.5041 166.148Z" fill="#FFDCDC"/>
<path d="M63.1998 175.536C63.9385 175.536 63.7479 182.422 58.1957 188.308C52.6435 194.194 45.8046 194.932 45.8284 194.218C45.8523 193.503 51.4283 191.715 56.2179 186.449C61.0076 181.183 62.4611 175.393 63.1998 175.536Z" fill="#FFDCDC"/>
<path d="M279.066 41.0926C279.451 42.2703 279.479 43.5359 279.146 44.7295C278.813 45.9231 278.133 46.9911 277.193 47.7984C276.252 48.6057 275.094 49.116 273.863 49.265C272.633 49.414 271.386 49.1948 270.28 48.6353C269.175 48.0757 268.26 47.2009 267.651 46.1214C267.042 45.0418 266.767 43.8061 266.861 42.5704C266.954 41.3346 267.412 40.1543 268.176 39.1787C268.941 38.2031 269.977 37.476 271.154 37.0893C271.937 36.8324 272.762 36.7321 273.583 36.7942C274.404 36.8564 275.205 37.0797 275.94 37.4515C276.674 37.8233 277.329 38.3362 277.865 38.961C278.401 39.5857 278.809 40.3101 279.066 41.0926Z" fill="#FFDCDC"/>
<path d="M277.663 39.4245C273.386 37.041 269.497 34.0197 266.13 30.4648C262.502 27.2237 259.102 23.7364 255.955 20.0276C256.217 19.7179 261.316 23.8641 267.083 29.5592C272.849 35.2544 277.782 39.0909 277.663 39.4245Z" fill="#FFDCDC"/>
<path d="M264.65 9.82835C264.561 12.3014 263.672 14.6788 262.116 16.6036C260.561 18.5285 258.423 19.897 256.024 20.5038C255.857 20.1225 258.693 18.6927 261.052 15.7379C263.411 12.7831 264.245 9.73303 264.65 9.82835Z" fill="#FFDCDC"/>
<path d="M269.083 14.5956C269.465 14.5956 269.369 18.0747 266.558 21.0533C265.826 22.0144 264.876 22.7879 263.786 23.3099C262.696 23.832 261.498 24.0876 260.291 24.0558C260.291 23.6507 263.126 22.7928 265.533 20.124C267.94 17.4551 268.678 14.5003 269.083 14.5956Z" fill="#FFDCDC"/>
<path d="M85.4559 56.392C83.423 57.8016 81.0178 58.5768 78.5444 58.6197C76.071 58.6626 73.6404 57.9712 71.5599 56.633C69.4793 55.2947 67.8422 53.3697 66.8555 51.1012C65.8688 48.8327 65.5768 46.3227 66.0164 43.8883C66.456 41.4538 67.6075 39.2044 69.3252 37.4243C71.043 35.6442 73.25 34.4133 75.6672 33.8872C78.0844 33.3612 80.6032 33.5635 82.9054 34.4688C85.2076 35.374 87.1898 36.9415 88.6013 38.973C90.4894 41.7015 91.2186 45.0674 90.629 48.3327C90.0394 51.598 88.179 54.4962 85.4559 56.392Z" fill="#FFDCDC"/>
<path d="M87.84 52.5312C86.6962 52.15 90.2229 39.3776 97.7291 25.0325C105.235 10.6874 111.574 -0.416905 112.622 0.0120176C113.671 0.44094 109.048 12.8082 101.613 26.9865C94.1786 41.1648 88.9838 52.9125 87.84 52.5312Z" fill="#FFDCDC"/>
<path d="M144.385 25.1285C144.385 26.1293 133.924 26.0102 123.344 19.0521C118.746 16.1998 115.033 12.1238 112.621 7.28056C110.834 3.44408 111.287 0.656099 111.811 0.63227C112.335 0.608441 113.121 2.82453 115.29 5.7555C118.166 9.59025 121.71 12.8755 125.751 15.4539C135.211 21.7448 144.695 23.8179 144.385 25.1285Z" fill="#FFDCDC"/>
<path d="M117.219 81.5308C115.185 82.9371 112.778 83.7085 110.305 83.7477C107.832 83.7869 105.403 83.092 103.324 81.7509C101.246 80.4098 99.6117 78.4826 98.6282 76.213C97.6448 73.9434 97.3562 71.4332 97.799 68.9996C98.2418 66.5661 99.396 64.3183 101.116 62.5406C102.836 60.7628 105.044 59.5348 107.462 59.0117C109.879 58.4886 112.397 58.6939 114.698 59.6017C116.999 60.5095 118.979 62.079 120.389 64.1118C121.325 65.4633 121.987 66.9861 122.334 68.5933C122.682 70.2005 122.71 71.8606 122.415 73.4784C122.121 75.0962 121.511 76.6401 120.619 78.0219C119.727 79.4036 118.572 80.596 117.219 81.5308Z" fill="#FFDCDC"/>
<path d="M119.628 77.67C118.46 77.2888 122.011 64.5164 129.517 50.1713C137.023 35.8262 143.362 24.7219 144.41 25.1508C145.459 25.5797 140.812 37.947 133.401 52.1253C125.99 66.3036 120.748 78.0513 119.628 77.67Z" fill="#FFDCDC"/>
<path d="M140.812 32.8972C140.812 34.041 130.922 34.5653 120.771 28.3935C110.62 22.2218 106.355 13.2621 107.379 12.8094C108.404 12.3566 113.813 19.267 123.011 24.7239C132.209 30.1807 140.931 31.6343 140.812 32.8972Z" fill="#FFDCDC"/>
<path d="M170.241 209.99C169.448 211.706 168.163 213.147 166.549 214.13C164.935 215.113 163.065 215.594 161.177 215.512C159.289 215.43 157.468 214.789 155.945 213.67C154.422 212.551 153.267 211.004 152.625 209.227C151.983 207.449 151.884 205.521 152.341 203.687C152.797 201.853 153.789 200.196 155.189 198.927C156.589 197.658 158.335 196.834 160.205 196.559C162.075 196.285 163.984 196.572 165.69 197.385C167.955 198.464 169.703 200.393 170.555 202.753C171.407 205.113 171.294 207.713 170.241 209.99Z" fill="#FFDCDC"/>
<path d="M170.431 206.561C169.525 206.752 167.023 197.03 166.451 184.782C165.88 172.533 165.832 162.835 166.666 162.716C167.5 162.597 169.192 172.462 169.716 184.591C170.24 196.72 171.217 206.371 170.431 206.561Z" fill="#FFDCDC"/>
<path d="M196.952 167.101C197.333 167.768 190.423 171.652 180.867 171.128C176.77 171.005 172.787 169.751 169.358 167.506C166.737 165.647 165.95 163.669 166.284 163.455C166.618 163.24 167.976 164.408 170.526 165.48C173.865 166.899 177.433 167.706 181.058 167.863C189.636 168.364 196.642 166.1 196.952 167.101Z" fill="#FFDCDC"/>
<path d="M200.622 214.376C199.829 216.091 198.544 217.532 196.93 218.515C195.316 219.499 193.446 219.98 191.558 219.898C189.67 219.816 187.849 219.175 186.326 218.056C184.803 216.936 183.648 215.39 183.006 213.612C182.364 211.835 182.265 209.907 182.722 208.073C183.178 206.239 184.17 204.582 185.57 203.313C186.97 202.044 188.716 201.22 190.586 200.945C192.456 200.67 194.365 200.958 196.071 201.771C198.336 202.85 200.084 204.779 200.936 207.138C201.788 209.498 201.676 212.099 200.622 214.376Z" fill="#FFDCDC"/>
<path d="M200.717 210.993C199.836 211.208 197.31 201.461 196.738 189.213C196.166 176.965 196.118 167.291 196.952 167.171C197.786 167.052 199.502 176.918 200.026 189.047C200.55 201.176 201.599 210.755 200.717 210.993Z" fill="#FFDCDC"/>
<path d="M197.572 173.534C198.049 174.249 191.71 178.3 182.726 178.3C173.743 178.3 167.5 173.892 168.024 173.201C168.548 172.51 174.696 174.964 182.774 175.012C190.852 175.059 197.167 172.653 197.572 173.534Z" fill="#FFDCDC"/>
<path d="M288.315 190.048C287.606 190.491 286.782 190.712 285.947 190.686C285.112 190.659 284.304 190.385 283.625 189.899C282.946 189.412 282.427 188.735 282.133 187.953C281.84 187.172 281.785 186.32 281.975 185.507C282.166 184.694 282.594 183.956 283.205 183.386C283.816 182.816 284.582 182.441 285.406 182.307C286.231 182.173 287.076 182.287 287.836 182.634C288.595 182.982 289.235 183.547 289.673 184.258C290.257 185.207 290.443 186.348 290.188 187.433C289.934 188.518 289.26 189.459 288.315 190.048Z" fill="#FFDCDC"/>
<path d="M289.173 188.808C288.792 188.665 290.246 184.424 292.986 179.706C294.46 176.773 296.293 174.036 298.443 171.556C298.824 171.747 297.013 175.798 294.273 180.444C292.821 183.376 291.115 186.175 289.173 188.808Z" fill="#FFDCDC"/>
<path d="M308.64 180.564C306.089 180.72 303.58 179.864 301.658 178.181C300.173 177.133 299.002 175.699 298.274 174.035C297.726 172.7 297.94 171.771 298.107 171.795C298.274 171.818 298.512 172.557 299.179 173.582C300.087 174.916 301.225 176.078 302.539 177.013C305.661 179.277 308.806 180.135 308.64 180.564Z" fill="#FFDCDC"/>
<path d="M298.559 199.078C297.849 199.514 297.025 199.729 296.192 199.697C295.359 199.665 294.554 199.387 293.879 198.898C293.205 198.409 292.69 197.731 292.4 196.949C292.11 196.168 292.058 195.318 292.251 194.507C292.444 193.696 292.872 192.96 293.483 192.393C294.093 191.825 294.858 191.452 295.681 191.319C296.504 191.186 297.348 191.299 298.106 191.645C298.864 191.992 299.503 192.555 299.941 193.264C300.233 193.736 300.429 194.261 300.518 194.809C300.607 195.357 300.586 195.917 300.458 196.458C300.329 196.998 300.095 197.507 299.77 197.957C299.444 198.407 299.032 198.788 298.559 199.078Z" fill="#FFDCDC"/>
<path d="M299.443 197.814C299.061 197.671 300.491 193.43 303.255 188.735C304.733 185.803 306.557 183.059 308.688 180.562C309.093 180.753 307.259 184.827 304.518 189.45C303.08 192.384 301.381 195.184 299.443 197.814Z" fill="#FFDCDC"/>
<path d="M307.355 183.112C307.355 183.494 303.995 183.494 300.683 181.254C297.37 179.014 296.107 175.916 296.465 175.773C296.822 175.63 298.514 178.156 301.517 180.039C304.519 181.921 307.426 182.684 307.355 183.112Z" fill="#FFDCDC"/>
<path d="M9.67949 340.911C8.61388 341.572 7.37618 341.902 6.12295 341.859C4.86973 341.817 3.65732 341.403 2.6391 340.671C1.62088 339.939 0.842622 338.922 0.402762 337.748C-0.0370975 336.573 -0.118775 335.295 0.168057 334.074C0.454888 332.854 1.09734 331.745 2.01414 330.89C2.93094 330.035 4.08088 329.47 5.31848 329.268C6.55609 329.067 7.82573 329.236 8.9668 329.756C10.1079 330.276 11.0691 331.123 11.7288 332.189C12.6126 333.618 12.8932 335.339 12.509 336.974C12.1247 338.61 11.107 340.025 9.67949 340.911Z" fill="#FFDCDC"/>
<path d="M10.9907 339.026C10.4188 338.812 12.5634 332.426 16.7096 325.396C20.8559 318.366 24.3827 312.886 24.8831 313.124C25.3835 313.362 22.7384 319.51 18.616 326.468C14.4936 333.426 11.5626 339.241 10.9907 339.026Z" fill="#FFDCDC"/>
<path d="M40.3013 326.658C40.3013 327.183 34.9874 326.825 29.8165 323.036C27.5682 321.481 25.8014 319.326 24.7171 316.817C23.9069 314.815 24.1928 313.433 24.4549 313.433C24.717 313.433 25.0745 314.577 26.0991 316.126C27.4459 318.135 29.1502 319.879 31.1271 321.273C35.7261 324.704 40.4681 325.991 40.3013 326.658Z" fill="#FFDCDC"/>
<path d="M25.0727 354.446C24.0072 355.109 22.7685 355.442 21.5139 355.401C20.2592 355.36 19.045 354.947 18.0252 354.215C17.0053 353.483 16.2258 352.465 15.7854 351.289C15.345 350.114 15.2635 348.834 15.5514 347.612C15.8393 346.39 16.4836 345.281 17.4025 344.426C18.3214 343.571 19.4736 343.007 20.7129 342.808C21.9523 342.608 23.223 342.781 24.364 343.304C25.505 343.828 26.4649 344.678 27.1219 345.748C27.9982 347.174 28.2746 348.89 27.8906 350.519C27.5067 352.149 26.4936 353.56 25.0727 354.446Z" fill="#FFDCDC"/>
<path d="M26.4093 352.56C25.8374 352.345 27.982 345.983 32.1282 338.93C36.2745 331.876 39.7774 326.419 40.3016 326.658C40.8259 326.896 38.157 333.044 34.0346 340.026C29.9122 347.008 26.9573 352.774 26.4093 352.56Z" fill="#FFDCDC"/>
<path d="M38.2748 330.496C38.2748 331.068 33.2469 331.068 28.2666 327.684C23.2863 324.3 21.38 319.654 21.9043 319.463C22.4285 319.272 25.002 322.894 29.5057 325.873C34.0094 328.852 38.3701 329.852 38.2748 330.496Z" fill="#FFDCDC"/>
</svg>
