<svg width="20" height="22" viewBox="0 0 20 22" fill="none" xmlns="http://www.w3.org/2000/svg">




<!-- header nav link-->

    <g id="search">
        <path d="M9 17C13.4183 17 17 13.4183 17 9C17 4.58172 13.4183 1 9 1C4.58172 1 1 4.58172 1 9C1 13.4183 4.58172 17 9 17Z" stroke="#FF4948" stroke-width="2" stroke-linecap="round" stroke-linejoin="round"/>
        <path d="M19.0004 19.0004L14.6504 14.6504" stroke="#FF4948" stroke-width="2" stroke-linecap="round" stroke-linejoin="round"/>

    </g>

    <g id="shop">
        <path d="M4 1L1 5V19C1 19.5304 1.21071 20.0391 1.58579 20.4142C1.96086 20.7893 2.46957 21 3 21H17C17.5304 21 18.0391 20.7893 18.4142 20.4142C18.7893 20.0391 19 19.5304 19 19V5L16 1H4Z" stroke="#FF4948" stroke-width="2" stroke-linecap="round" stroke-linejoin="round"/>
        <path d="M1 5H19" stroke="#FF4948" stroke-width="2" stroke-linecap="round" stroke-linejoin="round"/>
        <path d="M14 9C14 10.0609 13.5786 11.0783 12.8284 11.8284C12.0783 12.5786 11.0609 13 10 13C8.93913 13 7.92172 12.5786 7.17157 11.8284C6.42143 11.0783 6 10.0609 6 9" stroke="#FF4948" stroke-width="2" stroke-linecap="round" stroke-linejoin="round"/>

    </g>

    <g id="person">
        <path d="M17 19V17C17 15.9391 16.5786 14.9217 15.8284 14.1716C15.0783 13.4214 14.0609 13 13 13H5C3.93913 13 2.92172 13.4214 2.17157 14.1716C1.42143 14.9217 1 15.9391 1 17V19" stroke="#FF4948" stroke-width="2" stroke-linecap="round" stroke-linejoin="round"/>
        <path d="M9 9C11.2091 9 13 7.20914 13 5C13 2.79086 11.2091 1 9 1C6.79086 1 5 2.79086 5 5C5 7.20914 6.79086 9 9 9Z" stroke="#FF4948" stroke-width="2" stroke-linecap="round" stroke-linejoin="round"/>

    </g>
<!--    burger menu-->
    <g id="burger">
        <path d="M39.5003 10.3336H10.3336" stroke="white" stroke-width="3" stroke-linecap="round" stroke-linejoin="round"/>
        <path d="M39.5 2H2" stroke="white" stroke-width="3" stroke-linecap="round" stroke-linejoin="round"/>
        <path d="M39.5 18.6664H2" stroke="white" stroke-width="3" stroke-linecap="round" stroke-linejoin="round"/>
        <path d="M39.5003 27H10.3336" stroke="white" stroke-width="3" stroke-linecap="round" stroke-linejoin="round"/>
    </g>

<!--Good headphones-->
    <g id="battery">
        <path d="M28.3377 23.1459H21.1042C20.7049 23.1459 20.3809 22.8218 20.3809 22.4226C20.3809 22.0233 20.7049 21.6992 21.1042 21.6992H28.3377C29.5342 21.6992 30.5078 20.7256 30.5078 19.5291V18.0824C30.5078 17.6831 30.8319 17.3591 31.2312 17.3591H32.6648C33.0641 17.3591 33.3882 17.035 33.3882 16.6357V7.95549C33.3882 7.5562 33.0641 7.23214 32.6648 7.23214H31.2312C30.8319 7.23214 30.5078 6.90808 30.5078 6.50879V5.06208C30.5078 3.86565 29.5342 2.89202 28.3377 2.89202H23.9976C23.5983 2.89202 23.2743 2.56796 23.2743 2.16867C23.2743 1.76937 23.5983 1.44531 23.9976 1.44531H28.3377C30.3313 1.44531 31.9545 3.06852 31.9545 5.06208V5.78543H32.6648C33.8613 5.78543 34.8349 6.75907 34.8349 7.95549V16.6357C34.8349 17.8322 33.8613 18.8058 32.6648 18.8058H31.9545V19.5291C31.9545 21.5227 30.3313 23.1459 28.3377 23.1459Z" fill="#FF4948"/>
        <path d="M9.40359 23.1457H3.61677C1.6232 23.1457 0 21.5225 0 19.5289V5.06184C0 3.06827 1.6232 1.44507 3.61677 1.44507H13.7437C14.143 1.44507 14.4671 1.76913 14.4671 2.16842C14.4671 2.56771 14.143 2.89178 13.7437 2.89178H3.61677C2.42034 2.89178 1.44671 3.86541 1.44671 5.06184V19.5289C1.44671 20.7253 2.42034 21.699 3.61677 21.699H9.40359C9.80288 21.699 10.1269 22.023 10.1269 22.4223C10.1269 22.8216 9.80288 23.1457 9.40359 23.1457Z" fill="#FF4948"/>
        <path d="M13.5218 26.0394C13.4075 26.0394 13.2904 26.0119 13.1833 25.9554C12.8723 25.7905 12.7247 25.4245 12.8361 25.0889L15.8655 15.9124H10.1901C9.92098 15.9124 9.67504 15.7634 9.54918 15.5247C9.42476 15.286 9.44212 14.9981 9.59547 14.7767L19.6154 0.309669C19.8121 0.0261146 20.1868 -0.0751549 20.4993 0.0579421C20.8161 0.196826 20.9912 0.539696 20.9174 0.876778L18.8804 10.1256H24.6571C24.932 10.1256 25.1837 10.2818 25.3067 10.5292C25.4282 10.7766 25.3979 11.0717 25.23 11.2902L14.0947 25.7572C13.9544 25.941 13.7403 26.0394 13.5218 26.0394ZM11.5717 14.4657H16.8666C17.0995 14.4657 17.3165 14.5771 17.4525 14.7652C17.5885 14.9532 17.6261 15.1948 17.5524 15.4162L15.5414 21.5054L23.1873 11.5723H17.9806C17.7621 11.5723 17.5538 11.4725 17.4164 11.3017C17.2789 11.131 17.2269 10.9068 17.2731 10.6927L18.7141 4.15212L11.5717 14.4657Z" fill="#FF4948"/>

    </g>

    <g id="bluetooth">
        <path d="M27.6719 23.2339L20.2178 17.5L27.6719 11.7661C28.2454 11.3223 28.5815 10.6384 28.5825 9.91327C28.5792 9.18818 28.2411 8.50527 27.6665 8.06299L17.7498 0.479678C17.723 0.459307 17.6945 0.441191 17.6646 0.425537C17.2753 0.148818 16.8096 0.000136719 16.3319 0C15.0221 0.0475098 13.988 1.12896 13.9991 2.43961V12.6442L9.73863 9.0423C9.49424 8.84406 9.18006 8.75294 8.86752 8.78965C8.55498 8.82636 8.27047 8.98769 8.07859 9.23713L6.65794 11.0845C6.27602 11.5849 6.35791 12.2976 6.8434 12.6983L12.6092 17.5L6.85106 22.2957C6.36024 22.6952 6.27486 23.4121 6.65794 23.9158L8.07866 25.7629C8.27177 26.014 8.55867 26.1758 8.87347 26.2111C9.18826 26.2464 9.50388 26.1522 9.74779 25.95L13.9992 22.3558V32.5604C13.988 33.8711 15.0223 34.9526 16.3322 35C16.8092 34.9998 17.2743 34.8515 17.6633 34.5754C17.6936 34.5595 17.7226 34.5411 17.7499 34.5204L27.6665 26.937C28.2429 26.4962 28.5814 25.8124 28.5825 25.0868C28.5836 24.3612 28.247 23.6764 27.6719 23.2339ZM26.9578 26.0102L17.1123 33.5391C17.0858 33.5536 17.0604 33.5701 17.0363 33.5884C16.8353 33.7456 16.5878 33.8317 16.3325 33.8333C15.6711 33.7783 15.1631 33.2241 15.1658 32.5604V21.0988C15.1658 20.8718 15.0341 20.6653 14.828 20.5697C14.6221 20.4742 14.3793 20.5068 14.2059 20.6534L9.00322 25.0515L7.59016 23.1984L13.8941 17.9484C14.0271 17.8375 14.104 17.6732 14.104 17.5001C14.104 17.3269 14.0271 17.1626 13.8941 17.0518L7.5825 11.7958L8.99467 9.94096L14.2059 14.3467C14.3793 14.4933 14.6221 14.526 14.828 14.4304C15.034 14.3348 15.1658 14.1283 15.1657 13.9012V2.43961C15.163 1.77604 15.6709 1.22186 16.3322 1.16669C16.5875 1.16819 16.8351 1.25439 17.0363 1.41162C17.06 1.4298 17.0851 1.44614 17.1115 1.46036L26.9578 8.98987C27.246 9.21026 27.4153 9.55227 27.4158 9.91505C27.4163 10.2779 27.248 10.6203 26.9604 10.8415L18.9054 17.0378C18.7619 17.1482 18.6778 17.319 18.6778 17.5001C18.6778 17.6812 18.7619 17.8519 18.9054 17.9624L26.9604 24.1586C27.248 24.3798 27.4164 24.7222 27.4158 25.0851C27.4153 25.4478 27.2461 25.7898 26.9578 26.0102Z" fill="#FF4948"/>
        <path d="M18.0824 14.5743C18.4046 14.5743 18.6657 14.3132 18.6657 13.991V7.05504L22.4149 9.9221L20.06 11.7336C19.8061 11.9306 19.7593 12.2957 19.9552 12.5503C20.1511 12.8049 20.5161 12.8532 20.7715 12.6582L23.7292 10.383C23.8729 10.2724 23.957 10.1011 23.9567 9.91977C23.9565 9.73842 23.8718 9.56745 23.7277 9.45725L18.4367 5.41127C18.2604 5.27653 18.0229 5.25343 17.8239 5.3518C17.625 5.4501 17.4991 5.65278 17.499 5.87468V13.9909C17.4991 14.3132 17.7602 14.5743 18.0824 14.5743Z" fill="#FF4948"/>
        <path d="M23.7292 24.6173L20.7715 22.3421C20.5161 22.1472 20.1511 22.1954 19.9552 22.45C19.7593 22.7046 19.8061 23.0698 20.06 23.2667L22.415 25.0782L18.6658 27.9453V21.0093C18.6658 20.6872 18.4046 20.426 18.0825 20.426C17.7603 20.426 17.4991 20.6872 17.4991 21.0093V29.1256C17.4991 29.3475 17.6251 29.5502 17.8241 29.6485C18.0231 29.7468 18.2605 29.7238 18.4368 29.589L23.7278 25.543C23.8719 25.4328 23.9566 25.2619 23.9569 25.0805C23.9571 24.8991 23.873 24.7279 23.7292 24.6173Z" fill="#FF4948"/>

    </g>

    <g id="microphone">
        <g clip-path="url(#clip0_11_46825)">
            <path d="M6.38761 8.5516C6.13592 8.29991 5.72787 8.29985 5.47612 8.55147C3.96618 10.0611 3.13454 12.0667 3.13454 14.1988C3.13454 16.331 3.96611 18.3366 5.47612 19.8462C5.602 19.972 5.76687 20.0349 5.9318 20.0349C6.0968 20.0349 6.2618 19.9719 6.38761 19.846C6.6393 19.5943 6.63924 19.1862 6.38755 18.9345C5.12111 17.6684 4.42366 15.9866 4.42366 14.1987C4.42366 12.411 5.12111 10.7291 6.38755 9.46303C6.63924 9.21141 6.6393 8.80335 6.38761 8.5516Z" fill="#FF4948"/>
            <path d="M24.3081 11.74C23.9522 11.74 23.6635 12.0286 23.6635 12.3845V13.3756H22.2101V6.51035C22.2101 3.36478 19.6482 0.805664 16.4992 0.805664C13.3512 0.805664 10.7901 3.36478 10.7901 6.51035V13.3756H9.3367V12.3846C9.3367 12.0287 9.04814 11.7401 8.69217 11.7401C8.3362 11.7401 8.04764 12.0287 8.04764 12.3846V16.187C8.04764 19.9726 10.5525 23.1845 13.9929 24.2543V27.7327H11.7635C10.5316 27.7327 9.52942 28.7335 9.52942 29.9635V31.3162C9.52942 31.8004 9.92425 32.1943 10.4097 32.1943H13.6052C13.9611 32.1943 14.2497 31.9057 14.2497 31.5498C14.2497 31.1939 13.9611 30.9053 13.6052 30.9053H10.8185V29.9635C10.8185 29.4442 11.2425 29.0218 11.7635 29.0218H21.2367C21.7568 29.0218 22.1799 29.4443 22.1799 29.9635V30.9053H19.3933C19.0374 30.9053 18.7488 31.1939 18.7488 31.5498C18.7488 31.9057 19.0374 32.1943 19.3933 32.1943H22.5906C23.075 32.1943 23.469 31.8004 23.469 31.3162V29.9635C23.469 28.7335 22.4676 27.7327 21.2367 27.7327H19.0055V24.2544C22.4469 23.1848 24.9527 19.9728 24.9527 16.187V12.3846C24.9526 12.0286 24.664 11.74 24.3081 11.74ZM12.0791 6.51035C12.0791 4.07563 14.0619 2.09473 16.4991 2.09473C18.9374 2.09473 20.921 4.07556 20.921 6.51035V8.64046H12.0791V6.51035ZM12.0791 9.92952H20.9211V11.6105H12.0791V9.92952ZM12.0791 12.8995H20.9211V16.187C20.9211 18.6217 18.9374 20.6026 16.4992 20.6026C14.062 20.6026 12.0791 18.6217 12.0791 16.187V12.8995H12.0791ZM17.7164 27.7326H15.2819V24.5454C15.6795 24.603 16.0858 24.6334 16.4992 24.6334C16.9125 24.6334 17.3188 24.603 17.7164 24.5455V27.7326H17.7164ZM23.6635 16.187C23.6635 20.1335 20.4496 23.3443 16.4992 23.3443C12.5498 23.3443 9.3367 20.1336 9.3367 16.187V14.6647H10.7901V16.187C10.7901 19.3325 13.3512 21.8916 16.4992 21.8916C19.6482 21.8916 22.2101 19.3325 22.2101 16.187V14.6647H23.6635V16.187Z" fill="#FF4948"/>
            <path d="M29.7386 6.33728C29.4868 6.08559 29.0786 6.08591 28.8271 6.33767C28.5756 6.58948 28.5758 6.9976 28.8276 7.24923C30.6869 9.10683 31.7108 11.5753 31.7108 14.1999C31.7108 16.8245 30.6869 19.2931 28.8276 21.1507C28.5758 21.4022 28.5756 21.8103 28.8272 22.0622C28.9531 22.1882 29.1181 22.2512 29.2831 22.2512C29.448 22.2512 29.6128 22.1883 29.7387 22.0626C31.8417 19.9614 32.9999 17.1691 32.9999 14.1999C32.9999 11.2308 31.8417 8.43839 29.7386 6.33728Z" fill="#FF4948"/>
            <path d="M27.5228 8.55161C27.2709 8.29999 26.8629 8.30024 26.6112 8.552C26.3597 8.80382 26.3599 9.21193 26.6116 9.46356C27.8788 10.7297 28.5767 12.4114 28.5767 14.1991C28.5767 15.9869 27.8788 17.6686 26.6116 18.9348C26.3599 19.1863 26.3597 19.5944 26.6112 19.8463C26.7371 19.9723 26.9022 20.0353 27.0672 20.0353C27.2321 20.0353 27.3969 19.9724 27.5227 19.8467C29.0337 18.3371 29.8658 16.3314 29.8658 14.1992C29.8658 12.0669 29.0337 10.0612 27.5228 8.55161Z" fill="#FF4948"/>
            <path d="M1.28906 14.1995C1.28906 11.5748 2.31258 9.10627 4.17102 7.2486C4.42277 6.99698 4.4229 6.58892 4.17121 6.33711C3.91952 6.08529 3.51147 6.08522 3.25972 6.33691C1.15764 8.43808 0 11.2304 0 14.1995C0 17.1686 1.15764 19.9609 3.25972 22.062C3.38553 22.1878 3.55046 22.2507 3.71534 22.2507C3.88034 22.2507 4.04534 22.1877 4.17121 22.0618C4.42284 21.81 4.42277 21.402 4.17102 21.1503C2.31258 19.2927 1.28906 16.8241 1.28906 14.1995Z" fill="#FF4948"/>
            <path d="M16.499 30.9053C16.143 30.9053 15.8544 31.1939 15.8544 31.5498C15.8544 31.9057 16.143 32.1943 16.499 32.1943H16.5026C16.8585 32.1943 17.1454 31.9057 17.1454 31.5498C17.1454 31.1939 16.8549 30.9053 16.499 30.9053Z" fill="#FF4948"/>
        </g>
        <defs>
            <clipPath id="clip0_11_46825">
                <rect width="33" height="33" fill="white"/>
            </clipPath>
        </defs>
    </g>

<!--    cart-->
    <g id="cart">
        <path d="M9.04169 23.2499C7.62085 23.2499 6.47127 24.4124 6.47127 25.8333C6.47127 27.2541 7.62085 28.4166 9.04169 28.4166C10.4625 28.4166 11.625 27.2541 11.625 25.8333C11.625 24.4124 10.4625 23.2499 9.04169 23.2499ZM1.29169 2.58325V5.16659H3.87502L8.52502 14.9703L6.78127 18.1349C6.5746 18.4966 6.45835 18.9228 6.45835 19.3749C6.45835 20.7958 7.62085 21.9583 9.04169 21.9583H24.5417V19.3749H9.58419C9.40335 19.3749 9.26127 19.2328 9.26127 19.052L9.30002 18.897L10.4625 16.7916H20.0854C21.0542 16.7916 21.9067 16.262 22.3459 15.4612L26.97 7.07825C27.0734 6.89742 27.125 6.67784 27.125 6.45825C27.125 5.74784 26.5438 5.16659 25.8334 5.16659H6.7296L5.51544 2.58325H1.29169ZM21.9584 23.2499C20.5375 23.2499 19.3879 24.4124 19.3879 25.8333C19.3879 27.2541 20.5375 28.4166 21.9584 28.4166C23.3792 28.4166 24.5417 27.2541 24.5417 25.8333C24.5417 24.4124 23.3792 23.2499 21.9584 23.2499Z" fill="#716969"/>

    </g>

<!--arrow-->
    <g id="arrow">
        <g opacity="0.7">
            <path d="M11 21.5C16.5228 21.5 21 17.0228 21 11.5C21 5.97715 16.5228 1.5 11 1.5C5.47715 1.5 1 5.97715 1 11.5C1 17.0228 5.47715 21.5 11 21.5Z" stroke="black" stroke-width="2" stroke-linecap="round" stroke-linejoin="round"/>
            <path d="M11 15.5L15 11.5L11 7.5" stroke="black" stroke-width="2" stroke-linecap="round" stroke-linejoin="round"/>
            <path d="M7 11.5H15" stroke="black" stroke-width="2" stroke-linecap="round" stroke-linejoin="round"/>
        </g>
    </g>

<!--    star-->
    <g id="star">
        <path d="M16.0005 0L21.4392 9.27275L32.0005 11.5439L24.8005 19.5459L25.889 30.2222L16.0005 25.895L6.11194 30.2222L7.20049 19.5459L0.000488281 11.5439L10.5618 9.27275L16.0005 0Z" fill="#FFCB45"/>
    </g>

<!--    social-->
    <g id="instagram">
        <path d="M16 1H6C3.23858 1 1 3.23858 1 6V16C1 18.7614 3.23858 21 6 21H16C18.7614 21 21 18.7614 21 16V6C21 3.23858 18.7614 1 16 1Z" stroke="#FF4948" stroke-width="2" stroke-linecap="round" stroke-linejoin="round"/>
        <path d="M14.9997 10.3703C15.1231 11.2025 14.981 12.0525 14.5935 12.7993C14.206 13.5461 13.5929 14.1517 12.8413 14.53C12.0898 14.9082 11.2382 15.0399 10.4075 14.9062C9.57683 14.7726 8.80947 14.3804 8.21455 13.7855C7.61962 13.1905 7.22744 12.4232 7.09377 11.5925C6.96011 10.7619 7.09177 9.9102 7.47003 9.15868C7.84829 8.40716 8.45389 7.79404 9.20069 7.40654C9.94749 7.01904 10.7975 6.87689 11.6297 7.0003C12.4786 7.12619 13.2646 7.52176 13.8714 8.12861C14.4782 8.73545 14.8738 9.52138 14.9997 10.3703Z" stroke="#FF4948" stroke-width="2" stroke-linecap="round" stroke-linejoin="round"/>
        <path d="M16.5 5.5H16.51" stroke="#FF4948" stroke-width="2" stroke-linecap="round" stroke-linejoin="round"/>

    </g>

    <g id="twitter">
        <path d="M23 1.01006C22.0424 1.68553 20.9821 2.20217 19.86 2.54006C19.2577 1.84757 18.4573 1.35675 17.567 1.13398C16.6767 0.911216 15.7395 0.967251 14.8821 1.29451C14.0247 1.62177 13.2884 2.20446 12.773 2.96377C12.2575 3.72309 11.9877 4.62239 12 5.54006V6.54006C10.2426 6.58562 8.50127 6.19587 6.93101 5.4055C5.36074 4.61513 4.01032 3.44869 3 2.01006C3 2.01006 -1 11.0101 8 15.0101C5.94053 16.408 3.48716 17.109 1 17.0101C10 22.0101 21 17.0101 21 5.51006C20.9991 5.23151 20.9723 4.95365 20.92 4.68006C21.9406 3.67355 22.6608 2.40277 23 1.01006V1.01006Z" stroke="#FF4948" stroke-width="2" stroke-linecap="round" stroke-linejoin="round"/>

    </g>

    <g id="facebook">
        <path d="M12 1H9C7.67392 1 6.40215 1.52678 5.46447 2.46447C4.52678 3.40215 4 4.67392 4 6V9H1V13H4V21H8V13H11L12 9H8V6C8 5.73478 8.10536 5.48043 8.29289 5.29289C8.48043 5.10536 8.73478 5 9 5H12V1Z" stroke="#FF4948" stroke-width="2" stroke-linecap="round" stroke-linejoin="round"/>

    </g>

</svg>
