<svg width="813" height="633" viewBox="0 0 813 633" fill="none" xmlns="http://www.w3.org/2000/svg">
<g opacity="0.1">
<path d="M617.648 11.0069C617.648 11.0069 628.279 14.6916 624.688 17.1323C621.098 19.5731 609.175 50.9981 611.64 55.0817C614.104 59.1653 621.825 45.6941 626.331 50.1767C630.837 54.6592 624.289 65.6897 617.342 64.8682C610.396 64.0468 607.133 57.1235 608.776 48.44C610.419 39.7564 616.028 26.2148 616.732 23.2577C617.436 20.3006 614.268 18.7752 609.386 21.6149C604.505 24.4547 595.915 19.5731 593.451 14.2691C590.987 8.96514 593.052 -1.92516e-05 593.052 -1.92516e-05C593.052 -1.92516e-05 591.433 4.48255 599.576 6.52436C607.72 8.56616 614.808 9.78654 617.648 11.0069Z" fill="white"/>
<path d="M15.65 188.809C20.9706 186.106 26.1342 183.105 31.1161 179.82C38.6262 174.798 42.8506 177.215 41.771 180.548C40.6915 183.88 47.1454 207.514 56.7677 219.999C66.3899 232.485 65.4981 218.239 72.75 215.775C80.0019 213.311 83.9213 220.469 78.3592 228.777C72.797 237.085 60.2176 234.573 58.5513 229.481C56.885 224.388 45.1036 202.069 41.6067 196.624C38.1098 191.179 35.5282 191.484 29.1916 197.798C26.487 200.653 23.115 202.792 19.3788 204.021C15.6427 205.25 11.6596 205.531 7.78792 204.838C7.78792 204.838 20.7663 229.715 24.7325 237.695C28.6988 245.674 31.9844 255.766 37.8282 255.555C43.672 255.343 50.2667 243.82 54.9136 250.861C59.5605 257.902 45.6903 269.894 38.2272 266.491C30.764 263.088 26.1876 247.458 20.6489 236.662C15.1103 225.866 -0.919046 197.422 0.0431886 193.362C1.00542 189.302 8.46853 193.479 15.65 188.809Z" fill="white"/>
<path d="M166.135 236.662C169.897 234.749 173.548 232.625 177.072 230.302C182.399 226.758 185.309 228.472 184.605 230.819C183.901 233.165 188.407 249.899 195.213 258.723C202.019 267.547 201.385 257.479 206.525 255.743C211.665 254.006 214.411 259.075 210.468 264.942C206.525 270.81 197.654 269.026 196.387 265.435C192.867 257.472 188.87 249.729 184.417 242.248C181.93 238.446 180.099 238.61 175.616 243.069C173.698 245.081 171.312 246.586 168.671 247.45C166.029 248.314 163.215 248.51 160.479 248.021C160.479 248.021 169.655 265.6 172.472 271.209C175.288 276.818 177.588 283.999 181.859 283.858C186.131 283.718 190.637 275.503 193.922 280.573C197.208 285.642 187.398 294.044 182.188 291.627C176.978 289.209 173.669 278.179 169.773 270.505C165.877 262.83 154.518 242.764 155.198 239.995C155.879 237.226 160.995 239.971 166.135 236.662Z" fill="white"/>
<path d="M701.843 73.3817C705.586 71.4694 709.221 69.354 712.733 67.0451C718.061 63.4778 720.971 65.1911 720.267 67.538C719.563 69.8849 724.069 86.6182 730.875 95.466C737.681 104.314 737.047 94.1987 742.187 92.462C747.326 90.7253 750.072 95.8181 746.129 101.662C742.187 107.506 733.315 105.745 732.048 102.155C728.529 94.1917 724.532 86.4485 720.079 78.9674C717.591 75.1654 715.761 75.3297 711.278 79.7888C709.381 81.7813 707.023 83.2756 704.411 84.1393C701.8 85.0031 699.015 85.2096 696.305 84.7407C696.305 84.7407 705.505 102.319 708.297 107.928C711.09 113.537 713.414 120.719 717.685 120.578C721.956 120.437 726.462 112.223 729.748 117.292C733.034 122.362 723.224 130.763 718.014 128.346C712.803 125.929 709.494 114.898 705.599 107.224C701.703 99.5497 690.344 79.4602 691.024 76.7143C691.705 73.9685 696.774 76.6909 701.843 73.3817Z" fill="white"/>
<path d="M234.745 65.509C234.745 65.509 246.855 69.7099 242.677 72.5496C238.5 75.3894 224.981 111.156 227.774 115.826C230.567 120.497 239.509 105.125 244.531 110.241C249.553 115.357 242.184 127.913 234.299 126.974C226.413 126.035 222.564 118.15 224.512 108.363C226.46 98.5767 232.891 82.7821 233.9 79.5199C234.909 76.2577 231.107 74.4037 225.521 77.6659C219.936 80.9281 210.173 75.319 207.38 69.2875C204.587 63.2559 206.91 53 206.91 53C206.91 53 205.056 58.1162 214.35 60.4396C223.644 62.7631 231.435 64.1243 234.745 65.509Z" fill="white"/>
<path d="M636.737 570.509C636.737 570.509 648.823 574.71 644.646 577.55C640.468 580.389 626.95 616.156 629.743 620.803C632.536 625.45 641.478 610.101 646.5 615.217C651.522 620.334 644.153 632.913 636.267 631.974C628.382 631.035 624.533 623.126 626.504 613.363C628.476 603.6 634.883 587.782 635.892 584.52C636.901 581.258 633.099 579.404 627.514 582.666C621.928 585.928 612.165 580.319 609.372 574.287C606.579 568.256 608.903 558 608.903 558C608.903 558 607.049 563.116 616.342 565.44C625.636 567.763 633.475 569.124 636.737 570.509Z" fill="white"/>
<path d="M196.362 496.886C196.362 496.886 208.472 501.087 204.271 503.927C200.07 506.767 186.599 542.533 189.392 547.227C192.185 551.921 201.009 536.525 206.149 541.642C211.288 546.758 203.802 559.314 195.893 558.375C187.984 557.436 184.275 549.551 186.13 539.764C187.984 529.977 194.508 514.183 195.517 510.921C196.526 507.658 192.724 505.804 187.139 509.067C181.553 512.329 171.767 506.72 168.974 500.688C166.181 494.657 168.528 484.401 168.528 484.401C168.528 484.401 166.65 489.517 175.967 491.84C185.285 494.164 193.1 495.595 196.362 496.886Z" fill="white"/>
<path d="M737.808 303.9C743.864 300.846 749.748 297.461 755.433 293.762C764.023 288.012 768.717 290.758 767.59 294.583C766.464 298.408 773.716 325.304 784.676 339.573C795.636 353.842 794.65 337.531 802.911 334.738C811.172 331.946 815.655 340.136 809.295 349.571C802.935 359.005 788.618 356.166 786.741 350.369C784.863 344.572 771.392 319.131 767.426 312.983C763.46 306.834 760.385 307.115 753.345 314.32C750.259 317.566 746.415 319.994 742.159 321.387C737.903 322.78 733.368 323.093 728.96 322.3C728.96 322.3 743.652 350.556 748.158 359.592C752.664 368.628 756.419 380.221 763.108 379.987C769.796 379.752 777.189 366.515 782.587 374.683C787.985 382.85 772.049 396.391 763.554 392.519C755.058 388.647 749.801 370.834 743.511 358.512C737.221 346.191 718.916 313.781 720.042 309.228C721.169 304.675 729.641 309.228 737.808 303.9Z" fill="white"/>
<path d="M9.64127 478.322C12.8718 476.679 16.006 474.853 19.0289 472.853C23.6053 469.803 26.0695 471.281 25.5062 473.299C24.943 475.318 28.7684 489.728 34.6122 497.285C40.456 504.842 39.9397 496.205 44.3284 494.703C48.7171 493.201 51.1344 497.59 47.7314 502.612C44.3284 507.634 36.7244 506.132 35.7153 503.058C32.6813 496.209 29.2409 489.548 25.4124 483.109C23.3002 479.847 21.7043 479.988 17.8554 483.837C16.2085 485.565 14.1587 486.858 11.8896 487.599C9.62054 488.34 7.20303 488.507 4.85358 488.085C4.85358 488.085 12.7392 503.199 15.1565 508.01C17.5738 512.821 19.5451 519.017 23.1124 518.876C26.6797 518.735 30.6695 511.695 33.4858 516.06C36.302 520.425 27.8766 527.63 23.3471 525.447C18.8176 523.265 16.0248 513.877 12.6687 507.306C9.31265 500.735 -0.450437 483.461 0.136287 480.997C0.723014 478.533 5.27604 481.162 9.64127 478.322Z" fill="white"/>
</g>
</svg>
